HIERARCHY
ROOT Hips
{
  OFFSET 0 0 0
  CHANNELS 6 Xposition Yposition Zposition Zrotation Yrotation Xrotation
  JOINT LeftThigh
  {
    OFFSET 8.409438 0 -5.917753
    CHANNELS 3 Zrotation Yrotation Xrotation
    JOINT LeftLeg
    {
      OFFSET 0 0 -42.358652
      CHANNELS 3 Zrotation Yrotation Xrotation
      JOINT LeftFoot
      {
        OFFSET 0 0 -39.357303
        CHANNELS 3 Zrotation Yrotation Xrotation
      }
    }
  }
  JOINT RightThigh
  {
    OFFSET -8.409438 0 -5.917753
    CHANNELS 3 Zrotation Yrotation Xrotation
    JOINT RightLeg
    {
      OFFSET 0 0 -42.358652
      CHANNELS 3 Zrotation Yrotation Xrotation
      JOINT RightFoot
      {
        OFFSET 0 0 -39.357303
        CHANNELS 3 Zrotation Yrotation Xrotation
      }
    }
  }
  JOINT SpineLow
  {
    OFFSET 0 0 4.719101
    CHANNELS 3 Zrotation Yrotation Xrotation
    JOINT SpineMid
    {
      OFFSET 0 0 12.899191
      CHANNELS 3 Zrotation Yrotation Xrotation
      JOINT Chest
      {
        OFFSET 0 0 12.899191
        CHANNELS 3 Zrotation Yrotation Xrotation
        JOINT LeftShoulder
        {
          OFFSET 7.550562 1.41573 9.438202
          CHANNELS 3 Zrotation Yrotation Xrotation
          JOINT LeftArm
          {
            OFFSET 9.155056 0 4.247191
            CHANNELS 3 Zrotation Yrotation Xrotation
            JOINT LeftForearm
            {
              OFFSET 0 0 25.771955
              CHANNELS 3 Zrotation Yrotation Xrotation
              JOINT LeftHand
              {
                OFFSET 0 0 25.197169
                CHANNELS 3 Zrotation Yrotation Xrotation
              }
            }
          }
        }
        JOINT RightShoulder
        {
          OFFSET -7.550562 1.41573 9.438202
          CHANNELS 3 Zrotation Yrotation Xrotation
          JOINT RightArm
          {
            OFFSET -9.155056 0 4.247191
            CHANNELS 3 Zrotation Yrotation Xrotation
            JOINT RightForearm
            {
              OFFSET 0 0 -25.771955
              CHANNELS 3 Zrotation Yrotation Xrotation
              JOINT RightHand
              {
                OFFSET 0 0 -25.197169
                CHANNELS 3 Zrotation Yrotation Xrotation
              }
            }
          }
        }
        JOINT Neck
        {
          OFFSET 0 0 15.101124
          CHANNELS 3 Zrotation Yrotation Xrotation
          JOINT Head
          {
            OFFSET 0 0 11.325843
            CHANNELS 3 Zrotation Yrotation Xrotation
            End Site
            {
              OFFSET 0 0 14.157303
            }
          }
        }
      }
    }
  }
}
MOTION
Frames: 10
Frame Time: 0.0
0.0  93.25843  0.0  0.293661  31.919876  -83.488547  7.594546  -16.217205  24.051516  1.287536  -1.421176  1.019907  -2.352369  1.122384  -3.677598  -24.237634  -13.695706  -44.439506  -1.933403  23.156957  35.709528  10.908934  0.292678  3.47869  -0.969307  -0.420587  -0.473167  -2.641412  -1.168332  -1.276381  -2.641412  -1.168332  -1.276381  -25.335773  21.808577  4.186082  122.149523  48.325755  -161.967311  -20.24677  -13.341553  77.991316  10.85857  -22.461374  94.896867  2.691911  -9.350752  11.452398  67.872745  71.746627  6.798276  -48.926557  -3.980724  -63.540988  86.557849  -12.248929  -1.032915  -11.050811  1.437566  2.106492  -8.292743  1.040498  1.606413  
0.0  93.25843  0.0  -0.181986  31.452358  -83.661454  7.869988  -16.616602  24.397283  1.851411  -1.595213  0.79689  -2.491048  1.118362  -3.592779  -23.749858  -14.253244  -43.744964  -2.270312  23.122684  35.435655  10.962575  0.379962  3.341379  -1.010815  -0.511572  -0.520011  -2.752204  -1.419711  -1.399929  -2.752205  -1.419711  -1.399929  -25.089899  21.720724  4.174767  122.26179  48.31309  -162.474266  -20.315257  -13.556151  77.941934  11.310095  -23.537728  95.293306  2.963269  -9.203738  11.415086  67.808044  71.793891  7.018464  -48.0037  -1.929717  -63.252037  86.176459  -13.470706  -0.086065  -10.644111  1.651665  2.11851  -7.988368  1.202298  1.618132  
0.0  93.25843  0.0  -0.715321  30.78469  -84.102406  8.176243  -17.184605  24.963993  2.333949  -1.701481  0.776707  -2.756575  1.069108  -3.5898  -22.894357  -14.66042  -42.305085  -2.608366  22.891567  34.409299  10.902952  0.914732  3.341684  -1.052195  -0.589535  -0.506185  -2.86412  -1.633027  -1.357911  -2.86412  -1.633027  -1.357911  -24.789881  21.506323  4.093765  122.59918  48.619458  -162.864556  -20.363961  -13.65636  77.77017  11.738844  -24.898019  95.429023  3.451527  -9.179767  11.261277  67.900465  72.044722  7.466958  -47.013349  0.750849  -62.750407  85.968234  -15.045604  0.982708  -10.229098  1.760284  1.998873  -7.677073  1.287199  1.52902  
0.0  93.25843  0.0  -1.284105  30.428715  -84.462077  7.966516  -17.785829  25.357064  2.723947  -1.728652  0.982361  -2.937868  1.064482  -3.54685  -21.869671  -14.902854  -41.460392  -2.962925  22.817687  33.767796  10.937558  1.167761  3.459486  -1.138822  -0.690929  -0.508104  -3.098974  -1.911936  -1.356308  -3.098974  -1.911936  -1.356308  -24.604257  21.368465  3.948851  123.284471  49.278057  -163.04229  -20.233779  -13.581334  77.543817  12.055907  -26.814164  95.361528  3.926386  -9.066081  11.165579  68.273385  72.45637  8.269931  -45.982976  3.811274  -62.149793  85.903732  -16.968824  2.017739  -9.80261  1.862868  1.895472  -7.357171  1.36718  1.451815  
0.0  93.25843  0.0  -2.026666  29.883775  -84.897315  7.761988  -18.473184  25.558566  2.976268  -1.668912  1.56514  -2.983101  0.990327  -3.428333  -20.896615  -15.966603  -40.265484  -2.74596  23.028438  32.873033  10.923022  1.400495  3.642289  -1.19978  -0.828244  -0.512443  -3.262955  -2.288594  -1.35972  -3.262955  -2.288594  -1.35972  -24.402353  21.27588  3.754826  124.434271  50.148453  -162.878236  -19.781184  -13.522949  77.354043  12.095904  -29.439806  95.454517  4.397268  -8.830045  11.124821  68.953882  72.87341  9.383741  -44.891647  6.853438  -61.56064  85.862463  -19.0043  2.810588  -9.469883  2.013372  1.809176  -7.107714  1.482433  1.38835  
0.0  93.25843  0.0  -2.884118  29.219377  -85.371568  7.696389  -19.261112  25.445348  3.122948  -1.639126  2.67228  -2.930051  0.90144  -3.265988  -20.229288  -17.524515  -38.686407  -2.18814  23.383825  31.86482  10.691146  1.523142  3.531273  -1.242466  -0.992414  -0.522534  -3.376301  -2.738552  -1.377586  -3.376301  -2.738552  -1.377586  -24.345248  21.197579  3.437696  125.895524  51.127697  -162.641158  -19.101643  -13.887333  77.333474  11.571983  -32.850897  95.952037  4.821638  -8.453025  11.101587  70.132214  73.201591  10.869829  -43.787997  9.54835  -60.976168  85.79896  -20.982563  3.491658  -9.021107  2.255537  1.886732  -6.771996  1.664253  1.448553  
0.0  93.25843  0.0  -3.766518  28.513  -85.929692  7.7183  -20.119513  25.094827  3.247112  -1.594968  4.334787  -2.789156  0.785868  -3.080197  -19.922588  -18.995872  -37.046404  -1.359461  23.492083  31.103407  10.414224  1.6426  3.434801  -1.304158  -1.153634  -0.515044  -3.542532  -3.179917  -1.346071  -3.542532  -3.179917  -1.346071  -24.176183  21.12325  2.985711  127.044835  52.204585  -162.751461  -18.298705  -15.171618  77.468744  10.112075  -37.099273  96.812863  5.409162  -8.102464  10.986047  71.789046  73.407093  12.764294  -42.647544  11.820478  -60.416506  85.858795  -22.8531  4.307061  -8.439864  2.499796  2.081038  -6.337495  1.846554  1.595436  
0.0  93.25843  0.0  -4.487107  27.646093  -86.514236  7.851206  -20.921889  24.581901  3.657549  -1.563698  6.642847  -2.77979  0.653306  -2.865217  -19.753013  -20.130064  -35.007008  -0.8122  23.359698  29.877636  10.405602  1.729911  3.47458  -1.359314  -1.28385  -0.48186  -3.693024  -3.534945  -1.245529  -3.693024  -3.534945  -1.245529  -23.870939  21.006009  2.424418  127.874937  53.464095  -163.066324  -17.435839  -17.209892  77.560564  7.880142  -41.820301  97.676759  6.05541  -7.772513  10.770845  73.608966  73.560885  14.706677  -41.428405  13.889688  -59.856847  86.12934  -24.557671  4.993101  -7.757758  2.718393  2.344347  -5.82776  2.00946  1.792805  
0.0  93.25843  0.0  -4.927024  26.62072  -87.046614  8.000376  -21.565249  23.878493  4.201726  -1.691747  9.548666  -2.742803  0.613241  -2.510445  -19.11772  -20.464645  -33.25256  -0.706155  22.87003  28.798896  10.313562  1.847968  3.543049  -1.386452  -1.357232  -0.448071  -3.768105  -3.734021  -1.147558  -3.768104  -3.734021  -1.147558  -23.459557  20.791567  1.961743  128.681076  54.899704  -163.192525  -16.607969  -19.42265  77.619641  5.515302  -46.593058  98.125418  6.638954  -7.545863  10.588952  75.352513  73.75848  16.522931  -40.07685  15.957807  -59.269338  86.619857  -26.218826  5.409065  -7.059088  2.878116  2.694485  -5.30602  2.127856  2.054033  
0.0  93.25843  0.0  -5.155676  25.511951  -87.535773  8.130037  -22.04063  22.939916  4.44066  -1.915245  12.978272  -2.698863  0.486013  -2.156778  -17.855342  -20.182601  -31.859673  -1.057398  22.211699  27.894765  10.046052  1.940876  3.661038  -1.408269  -1.393066  -0.412145  -3.829422  -3.830219  -1.046022  -3.829422  -3.830219  -1.046022  -22.943189  20.530899  1.558784  129.739359  56.527409  -162.985857  -15.909574  -21.294928  77.747361  3.59703  -51.085089  97.954687  7.184043  -7.370497  10.420759  77.425949  74.00189  18.567793  -38.729866  18.199391  -58.663714  87.309029  -27.767913  5.558569  -6.307259  3.002869  3.052936  -4.744512  2.220998  2.320487  
